<?xml version="1.0"?>
<svg xmlns="http://www.w3.org/2000/svg" xmlns:xlink="http://www.w3.org/1999/xlink" version="1.1" id="Capa_1" x="0px" y="0px" viewBox="0 0 512.002 512.002" style="enable-background:new 0 0 512.002 512.002;" xml:space="preserve" width="512px" height="512px" class=""><g><g>
	<g>
		<path d="M110.353,183.339H72.662c-4.142,0-7.5,3.358-7.5,7.5s3.358,7.5,7.5,7.5h37.69c4.143,0,7.501-3.358,7.501-7.5    S114.495,183.339,110.353,183.339z" data-original="#000000" class="active-path" data-old_color="#F8F1F1" fill="#FBF7F7"/>
	</g>
</g><g>
	<g>
		<path d="M439.34,183.339h-37.69c-4.143,0-7.5,3.358-7.5,7.5s3.357,7.5,7.5,7.5h37.69c4.143,0,7.5-3.358,7.5-7.5    S443.484,183.339,439.34,183.339z" data-original="#000000" class="active-path" data-old_color="#F8F1F1" fill="#FBF7F7"/>
	</g>
</g><g>
	<g>
		<path d="M256.002,0c-4.143,0-7.5,3.358-7.5,7.5v37.69c0,4.143,3.357,7.5,7.5,7.5s7.5-3.358,7.5-7.5V7.5    C263.502,3.358,260.145,0,256.002,0z" data-original="#000000" class="active-path" data-old_color="#F8F1F1" fill="#FBF7F7"/>
	</g>
</g><g>
	<g>
		<path d="M136.361,259.914c-2.071-3.588-6.657-4.816-10.246-2.745l-32.641,18.845c-3.587,2.071-4.816,6.658-2.745,10.246    c2.071,3.588,6.658,4.817,10.246,2.745l32.641-18.845C137.203,268.088,138.432,263.501,136.361,259.914z" data-original="#000000" class="active-path" data-old_color="#F8F1F1" fill="#FBF7F7"/>
	</g>
</g><g>
	<g>
		<path d="M421.273,95.42c-2.07-3.587-6.66-4.816-10.246-2.745l-32.642,18.845c-3.587,2.071-4.816,6.658-2.745,10.246    c2.071,3.589,6.661,4.815,10.246,2.745l32.642-18.845C422.115,103.595,423.344,99.007,421.273,95.42z" data-original="#000000" class="active-path" data-old_color="#F8F1F1" fill="#FBF7F7"/>
	</g>
</g><g>
	<g>
		<path d="M351.421,25.568c-3.59-2.072-8.176-0.842-10.246,2.745L322.33,60.954c-2.071,3.588-0.842,8.176,2.745,10.246    c3.592,2.073,8.178,0.838,10.246-2.745l18.845-32.641C356.237,32.226,355.008,27.639,351.421,25.568z" data-original="#000000" class="active-path" data-old_color="#F8F1F1" fill="#FBF7F7"/>
	</g>
</g><g>
	<g>
		<path d="M189.672,60.954l-18.845-32.641c-2.072-3.587-6.659-4.816-10.246-2.745c-3.587,2.071-4.816,6.658-2.745,10.246    l18.845,32.641c2.071,3.588,6.658,4.817,10.246,2.745C190.514,69.128,191.743,64.541,189.672,60.954z" data-original="#000000" class="active-path" data-old_color="#F8F1F1" fill="#FBF7F7"/>
	</g>
</g><g>
	<g>
		<path d="M418.528,276.014l-32.642-18.845c-3.589-2.071-8.176-0.842-10.246,2.745c-2.071,3.587-0.842,8.175,2.745,10.246    l32.642,18.845c3.592,2.073,8.178,0.838,10.246-2.745C423.344,282.671,422.114,278.084,418.528,276.014z" data-original="#000000" class="active-path" data-old_color="#F8F1F1" fill="#FBF7F7"/>
	</g>
</g><g>
	<g>
		<path d="M133.616,111.52l-32.641-18.845c-3.588-2.072-8.174-0.842-10.246,2.745c-2.071,3.587-0.842,8.174,2.745,10.246    l32.641,18.845c3.587,2.072,8.174,0.842,10.246-2.745C138.432,118.179,137.203,113.591,133.616,111.52z" data-original="#000000" class="active-path" data-old_color="#F8F1F1" fill="#FBF7F7"/>
	</g>
</g><g>
	<g>
		<path d="M374.155,202.26c-4.078-0.707-7.964,2.026-8.673,6.107c-6.5,37.455-32.477,69.609-67.789,83.91    c-4.691,1.899-7.724,6.416-7.724,11.507v25.039h-10.626v-91.434h2.985c9.985,0,18.108-8.124,18.108-18.108v-13.512    c0-9.985-8.123-18.108-18.108-18.108h-8.828c-4.143,0-7.5,3.358-7.5,7.5c0,4.142,3.357,7.5,7.5,7.5h8.828    c1.685,0,3.107,1.423,3.107,3.107v13.512c0,1.685-1.423,3.107-3.107,3.107h-52.656c-1.685,0-3.108-1.423-3.108-3.107v-13.512    c0-1.685,1.423-3.107,3.108-3.107h8.827c4.142,0,7.5-3.358,7.5-7.5c0-4.142-3.358-7.5-7.5-7.5h-8.827    c-9.986,0-18.109,8.123-18.109,18.108v13.512c0,9.985,8.124,18.108,18.109,18.108h2.985v91.434h-10.626v-25.686    c0-4.72-2.849-8.91-7.258-10.672c-41.737-16.685-69.174-56.486-69.9-101.397C143.89,130.225,192.535,79.558,253.31,78.124    c57.45-1.365,106.018,40.534,112.994,97.437c0.504,4.112,4.256,7.036,8.357,6.532c4.111-0.504,7.035-4.246,6.531-8.358    c-7.814-63.744-62.835-112.116-128.238-110.609c-68.984,1.628-124.199,59.132-123.083,128.184    c0.812,50.191,31.013,94.756,77.158,114.192v23.539c-8.712,1.293-15.423,8.8-15.423,17.865v13.479    c0,9.971,8.112,18.083,18.083,18.083h1.873v50.113c0,0.93,0.205,2.019,0.607,2.957v0.001c3.651,8.507,26.555,61.869,30.413,70.859    c5.487,12.785,21.325,12.823,26.832,0l30.409-70.85c0.403-0.934,0.612-2.029,0.612-2.967v-50.113h1.872    c9.972,0,18.083-8.112,18.083-18.083v-13.479c0-9.066-6.711-16.572-15.423-17.865v-23.54c39.24-16.556,68.016-52.633,75.294-94.57    C380.971,206.85,378.237,202.968,374.155,202.26z M247.659,237.389h16.684v91.434h-16.684V237.389z M256.002,495.621    l-10.764-25.079h21.527C258.569,489.64,260.317,485.566,256.002,495.621z M273.204,455.541h-34.405l-8.353-19.459    c15.949,0,35.158,0,51.109,0L273.204,455.541z M226.566,421.081v-42.613H248.5v42.613H226.566z M285.438,421.081h-21.935v-42.613    h21.935V421.081z M305.393,346.906v13.479c0,1.67-1.411,3.082-3.082,3.082c-18.525,0-73.105,0-92.619,0    c-1.67,0-3.082-1.411-3.082-3.082v-13.479c0-1.67,1.412-3.082,3.082-3.082c9.898,0,80.595,0,92.619,0    C303.982,343.824,305.393,345.236,305.393,346.906z" data-original="#000000" class="active-path" data-old_color="#F8F1F1" fill="#FBF7F7"/>
	</g>
</g></g> </svg>
